<svg xmlns="http://www.w3.org/2000/svg" xmlns:xlink="http://www.w3.org/1999/xlink" version="1.1" width="256" height="256" viewBox="0 0 256 256" xml:space="preserve">
<g style="stroke: none; stroke-width: 0; stroke-dasharray: none; stroke-linecap: butt; stroke-linejoin: miter; stroke-miterlimit: 10; fill: none; fill-rule: nonzero; opacity: 1;" transform="translate(1.4065934065934016 1.4065934065934016) scale(2.81 2.81)">
	<path d="M 51.622 27.862 c -0.271 0 -0.541 -0.109 -0.738 -0.326 c -0.372 -0.408 -0.344 -1.04 0.063 -1.413 c 3.742 -3.419 8.27 -5.921 13.456 -7.438 c 0.531 -0.155 1.085 0.15 1.24 0.679 c 0.155 0.53 -0.149 1.085 -0.68 1.241 c -4.891 1.43 -9.152 3.783 -12.667 6.994 C 52.104 27.776 51.863 27.862 51.622 27.862 z" style="stroke: none; stroke-width: 1; stroke-dasharray: none; stroke-linecap: butt; stroke-linejoin: miter; stroke-miterlimit: 10; fill: rgb(0,0,0); fill-rule: nonzero; opacity: 1;" transform=" matrix(1 0 0 1 0 0) " stroke-linecap="round"/>
	<path d="M 51.624 37.903 c -0.271 0 -0.541 -0.109 -0.738 -0.326 c -0.372 -0.408 -0.344 -1.04 0.063 -1.413 c 3.742 -3.417 8.269 -5.919 13.454 -7.436 c 0.531 -0.156 1.085 0.149 1.24 0.679 c 0.155 0.53 -0.149 1.085 -0.68 1.241 c -4.89 1.43 -9.151 3.782 -12.665 6.992 C 52.106 37.817 51.865 37.903 51.624 37.903 z" style="stroke: none; stroke-width: 1; stroke-dasharray: none; stroke-linecap: butt; stroke-linejoin: miter; stroke-miterlimit: 10; fill: rgb(0,0,0); fill-rule: nonzero; opacity: 1;" transform=" matrix(1 0 0 1 0 0) " stroke-linecap="round"/>
	<path d="M 51.624 47.946 c -0.271 0 -0.541 -0.109 -0.738 -0.325 c -0.372 -0.408 -0.344 -1.041 0.063 -1.413 c 3.743 -3.418 8.27 -5.919 13.454 -7.435 c 0.531 -0.157 1.085 0.149 1.24 0.679 c 0.155 0.53 -0.149 1.085 -0.68 1.241 c -4.889 1.429 -9.15 3.781 -12.665 6.992 C 52.106 47.859 51.865 47.946 51.624 47.946 z" style="stroke: none; stroke-width: 1; stroke-dasharray: none; stroke-linecap: butt; stroke-linejoin: miter; stroke-miterlimit: 10; fill: rgb(0,0,0); fill-rule: nonzero; opacity: 1;" transform=" matrix(1 0 0 1 0 0) " stroke-linecap="round"/>
	<path d="M 86.135 24.367 h -3.146 v -1.19 c 0 -0.461 -0.315 -0.863 -0.765 -0.972 c -3.392 -0.823 -6.827 -1.418 -10.229 -1.793 V 6.276 c 0 -0.288 -0.124 -0.563 -0.342 -0.752 c -0.216 -0.19 -0.5 -0.275 -0.791 -0.239 c -11.777 1.574 -20.63 7.218 -26.343 16.757 c -12.197 -2.845 -24.555 -2.796 -36.746 0.163 c -0.448 0.109 -0.764 0.51 -0.764 0.972 v 1.19 H 3.866 C 1.734 24.367 0 26.102 0 28.233 v 52.625 c 0 2.131 1.734 3.865 3.866 3.865 h 82.269 c 2.131 0 3.865 -1.734 3.865 -3.865 V 28.233 C 90 26.102 88.266 24.367 86.135 24.367 z M 80.989 23.967 v 52.181 c -11.246 -2.545 -22.627 -2.619 -33.883 -0.235 c 5.401 -8.153 13.467 -13.002 24.023 -14.413 c 0.496 -0.066 0.867 -0.49 0.867 -0.991 V 22.424 C 74.986 22.762 78.001 23.273 80.989 23.967 z M 69.996 7.434 v 52.209 C 59.617 61.226 51.563 66.038 46 73.97 V 23.445 C 51.195 14.531 59.264 9.149 69.996 7.434 z M 9.011 23.967 c 11.613 -2.699 23.376 -2.699 34.989 0 v 52.181 c -5.808 -1.314 -11.651 -1.973 -17.495 -1.973 s -11.687 0.658 -17.495 1.973 V 23.967 z M 2 80.858 V 28.233 c 0 -1.029 0.837 -1.866 1.866 -1.866 h 3.145 V 77.41 c 0 0.307 0.141 0.597 0.382 0.786 c 0.241 0.188 0.555 0.256 0.854 0.186 c 11.861 -2.878 23.886 -2.93 35.753 -0.174 v 4.515 H 3.866 C 2.837 82.724 2 81.887 2 80.858 z M 88 80.858 c 0 1.028 -0.837 1.865 -1.865 1.865 H 46 v -4.515 c 11.867 -2.756 23.89 -2.705 35.754 0.174 c 0.077 0.02 0.156 0.028 0.235 0.028 c 0.222 0 0.44 -0.074 0.618 -0.214 c 0.241 -0.189 0.382 -0.479 0.382 -0.786 V 26.367 h 3.146 c 1.028 0 1.865 0.837 1.865 1.866 V 80.858 z" style="stroke: none; stroke-width: 1; stroke-dasharray: none; stroke-linecap: butt; stroke-linejoin: miter; stroke-miterlimit: 10; fill: rgb(0,0,0); fill-rule: nonzero; opacity: 1;" transform=" matrix(1 0 0 1 0 0) " stroke-linecap="round"/>
	<path d="M 51.625 57.989 c -0.271 0 -0.541 -0.109 -0.738 -0.325 c -0.372 -0.408 -0.344 -1.041 0.063 -1.413 c 3.742 -3.418 8.268 -5.92 13.453 -7.435 c 0.531 -0.155 1.085 0.149 1.24 0.68 s -0.149 1.085 -0.68 1.24 c -4.889 1.429 -9.15 3.78 -12.664 6.991 C 52.107 57.902 51.866 57.989 51.625 57.989 z" style="stroke: none; stroke-width: 1; stroke-dasharray: none; stroke-linecap: butt; stroke-linejoin: miter; stroke-miterlimit: 10; fill: rgb(0,0,0); fill-rule: nonzero; opacity: 1;" transform=" matrix(1 0 0 1 0 0) " stroke-linecap="round"/>
	<path d="M 14.385 34.948 c -0.483 0 -0.908 -0.351 -0.986 -0.843 c -0.086 -0.545 0.285 -1.058 0.831 -1.145 c 8.1 -1.289 16.315 -1.296 24.417 -0.021 c 0.546 0.086 0.918 0.598 0.833 1.143 c -0.086 0.546 -0.596 0.918 -1.143 0.833 c -7.894 -1.241 -15.898 -1.234 -23.792 0.021 C 14.49 34.944 14.437 34.948 14.385 34.948 z" style="stroke: none; stroke-width: 1; stroke-dasharray: none; stroke-linecap: butt; stroke-linejoin: miter; stroke-miterlimit: 10; fill: rgb(0,0,0); fill-rule: nonzero; opacity: 1;" transform=" matrix(1 0 0 1 0 0) " stroke-linecap="round"/>
	<path d="M 14.385 44.991 c -0.483 0 -0.908 -0.351 -0.986 -0.843 c -0.086 -0.545 0.285 -1.058 0.831 -1.145 c 8.102 -1.288 16.316 -1.295 24.417 -0.021 c 0.546 0.086 0.918 0.598 0.833 1.143 c -0.086 0.546 -0.596 0.921 -1.143 0.833 c -7.894 -1.241 -15.898 -1.235 -23.792 0.021 C 14.49 44.987 14.437 44.991 14.385 44.991 z" style="stroke: none; stroke-width: 1; stroke-dasharray: none; stroke-linecap: butt; stroke-linejoin: miter; stroke-miterlimit: 10; fill: rgb(0,0,0); fill-rule: nonzero; opacity: 1;" transform=" matrix(1 0 0 1 0 0) " stroke-linecap="round"/>
	<path d="M 14.385 55.034 c -0.483 0 -0.908 -0.351 -0.986 -0.843 c -0.086 -0.546 0.285 -1.059 0.831 -1.145 c 8.104 -1.287 16.32 -1.296 24.417 -0.021 c 0.546 0.086 0.918 0.599 0.833 1.144 c -0.086 0.546 -0.601 0.915 -1.143 0.833 c -7.891 -1.243 -15.895 -1.235 -23.792 0.02 C 14.491 55.03 14.438 55.034 14.385 55.034 z" style="stroke: none; stroke-width: 1; stroke-dasharray: none; stroke-linecap: butt; stroke-linejoin: miter; stroke-miterlimit: 10; fill: rgb(0,0,0); fill-rule: nonzero; opacity: 1;" transform=" matrix(1 0 0 1 0 0) " stroke-linecap="round"/>
	<path d="M 14.385 65.077 c -0.483 0 -0.908 -0.351 -0.987 -0.843 c -0.086 -0.546 0.285 -1.058 0.831 -1.145 c 8.109 -1.289 16.333 -1.294 24.445 -0.018 c 0.545 0.087 0.918 0.599 0.832 1.144 c -0.085 0.546 -0.598 0.915 -1.144 0.833 c -7.905 -1.246 -15.92 -1.241 -23.819 0.016 C 14.49 65.073 14.437 65.077 14.385 65.077 z" style="stroke: none; stroke-width: 1; stroke-dasharray: none; stroke-linecap: butt; stroke-linejoin: miter; stroke-miterlimit: 10; fill: rgb(0,0,0); fill-rule: nonzero; opacity: 1;" transform=" matrix(1 0 0 1 0 0) " stroke-linecap="round"/>
</g>
</svg>