<?xml version="1.0" encoding="UTF-8"?>
<svg version="1.1" xmlns="http://www.w3.org/2000/svg" width="512" height="512">
<path d="M0 0 C1.08535003 -0.01043099 2.17070005 -0.02086198 3.28893948 -0.03160906 C4.4807536 -0.02268617 5.67256773 -0.01376328 6.90049744 -0.00457001 C8.1669941 -0.01080997 9.43349077 -0.01704993 10.73836613 -0.02347898 C14.25623789 -0.04020649 17.77367666 -0.03191078 21.29155016 -0.01953411 C25.0843963 -0.01049978 28.87716693 -0.02444527 32.66999817 -0.0354538 C40.10110801 -0.05326098 47.53205645 -0.0493893 54.96317267 -0.03780323 C61.00138663 -0.0287778 67.03955528 -0.02754104 73.07777405 -0.0318985 C73.93643918 -0.03251143 74.79510431 -0.03312436 75.6797896 -0.03375587 C77.42403056 -0.03503474 79.1682715 -0.03633159 80.91251242 -0.03764623 C97.27679259 -0.04905847 113.64098319 -0.03592825 130.00524867 -0.01444477 C144.05330288 0.00342681 158.1012249 0.00032288 172.14927673 -0.01811981 C188.45410941 -0.03951518 204.75886355 -0.04795977 221.06370831 -0.03567076 C222.80161221 -0.03439653 224.53951612 -0.03313905 226.27742004 -0.0318985 C227.13255143 -0.0312814 227.98768281 -0.03066429 228.86872727 -0.03002849 C234.90123791 -0.02657158 240.93369884 -0.03241126 246.96620178 -0.04181671 C254.31562458 -0.05302328 261.66487645 -0.05002505 269.0142796 -0.02869374 C272.76569228 -0.01816509 276.51681973 -0.01409203 280.26823044 -0.02729034 C284.33063529 -0.04136688 288.39231699 -0.02458514 292.45469666 -0.00457001 C293.64651078 -0.01349289 294.83832491 -0.02241578 296.06625462 -0.03160906 C297.15160464 -0.02117807 298.23695467 -0.01074708 299.35519409 0 C300.29321334 0.00064941 301.23123259 0.00129882 302.19767666 0.00196791 C305.46763594 0.66309665 306.65881221 1.89095371 308.67759705 4.50336456 C309.0755226 7.34440289 309.23931455 9.7901875 309.20884705 12.62836456 C309.21267395 13.4122757 309.21650085 14.19618683 309.22044373 15.00385284 C309.22316057 16.65800005 309.21581515 18.31219039 309.19908142 19.96625519 C309.17766596 22.49522618 309.19888802 25.02135671 309.22447205 27.55023956 C309.22182873 29.15962082 309.21670365 30.76900031 309.20884705 32.37836456 C309.21694397 33.13262726 309.22504089 33.88688995 309.23338318 34.66400909 C309.17449216 37.96867945 309.0288141 40.04201732 306.99778748 42.70990753 C304.11009133 44.94203421 302.65094946 44.9708827 299.03697205 44.89398956 C297.96705017 44.88109894 296.8971283 44.86820831 295.79478455 44.85492706 C294.68361267 44.82141144 293.5724408 44.78789581 292.42759705 44.75336456 C290.73763611 44.72629425 290.73763611 44.72629425 289.01353455 44.69867706 C286.23402809 44.65156678 283.45624365 44.58579817 280.67759705 44.50336456 C280.6875898 45.33543678 280.6875898 45.33543678 280.69778442 46.18431854 C280.76531349 52.07535618 280.80987192 57.96628025 280.84239197 63.85761261 C280.85727289 66.0422285 280.87758406 68.22681567 280.90391541 70.41132355 C281.33113343 106.82537779 274.74480848 141.65193155 248.61509705 168.76508331 C242.45717862 175.03518373 236.20185677 181.12831641 229.55088806 186.87519073 C226.78842254 189.27619198 224.10754264 191.76109621 221.42759705 194.25336456 C220.30403848 195.29387964 219.18033719 196.33424062 218.0565033 197.37445831 C217.49592224 197.89378937 216.93534119 198.41312042 216.35777283 198.94818878 C213.69856745 201.40955731 211.03326526 203.86421862 208.36509705 206.31586456 C207.86977478 206.77283722 207.37445251 207.22980988 206.86412048 207.70063019 C204.03237321 210.30257101 201.13623856 212.79785617 198.17759705 215.25336456 C193.46342776 219.38928855 190.80031668 223.59985476 189.67759705 229.87836456 C189.1827952 237.57383533 192.90699411 242.88730942 197.80259705 248.50336456 C201.68462478 252.61337435 205.77364013 256.43133754 210.0174408 260.16352081 C212.8980093 262.69723672 215.72958808 265.28105012 218.55259705 267.87836456 C219.56819952 268.81068077 220.58382467 269.74297228 221.59947205 270.67523956 C223.13929112 272.08983828 224.67895173 273.50460936 226.21861267 274.91938019 C227.74623862 276.32277734 229.27430695 277.72569072 230.80259705 279.12836456 C231.29896667 279.58420929 231.7953363 280.04005402 232.30674744 280.50971222 C235.51262618 283.44926941 238.74519777 286.35700969 241.99009705 289.25336456 C243.55419639 290.66826524 245.11685736 292.08475879 246.67759705 293.50336456 C247.27958923 294.0383255 247.88158142 294.57328644 248.5018158 295.12445831 C270.87631726 316.03861936 280.29172085 348.78470085 281.67759705 378.50336456 C281.81978029 385.08596668 281.77274378 391.66981253 281.74009705 398.25336456 C281.7350699 400.02940496 281.73050915 401.80544674 281.72642517 403.58148956 C281.71552061 407.88881604 281.69832357 412.19607461 281.67759705 416.50336456 C282.38368103 416.4824173 283.08976501 416.46147003 283.81724548 416.439888 C287.02055081 416.35667158 290.22362868 416.30468671 293.42759705 416.25336456 C294.53876892 416.21984894 295.6499408 416.18633331 296.79478455 416.15180206 C297.86470642 416.13891144 298.9346283 416.12602081 300.03697205 416.11273956 C301.02149353 416.0917923 302.00601501 416.07084503 303.02037048 416.049263 C305.67759705 416.50336456 305.67759705 416.50336456 307.99693298 418.033638 C310.30074708 421.4190801 310.25259549 424.45244793 310.20884705 428.40961456 C310.21267395 429.17132965 310.21650085 429.93304474 310.22044373 430.7178421 C310.22316018 432.32491125 310.21581749 433.9320248 310.19908142 435.53900909 C310.17766491 437.99558043 310.19888883 440.44922767 310.22447205 442.90570831 C310.22182872 444.46951684 310.21670363 446.03332354 310.20884705 447.59711456 C310.21694397 448.32950348 310.22504089 449.0618924 310.23338318 449.81647491 C310.17339268 453.08758645 310.00989037 455.07423521 307.97887468 457.697124 C305.18501327 459.88998667 303.85650925 460.00430214 300.33957672 460.00672913 C299.2507433 460.01716012 298.16190988 460.0275911 297.0400815 460.03833818 C295.84437643 460.0294153 294.64867135 460.02049241 293.41673279 460.01129913 C292.14615257 460.0175391 290.87557235 460.02377906 289.5664897 460.03020811 C286.03721683 460.04693588 282.50837554 460.03863978 278.97910094 460.02626324 C275.17398485 460.01722901 271.36894401 460.03117434 267.56384277 460.04218292 C260.10866963 460.05999022 252.65365737 460.05611837 245.19847786 460.04453236 C239.1407178 460.03550698 233.08300289 460.03427015 227.02523804 460.03862762 C226.16379754 460.03924056 225.30235705 460.03985349 224.4148123 460.04048499 C222.66493434 460.04176387 220.9150564 460.04306072 219.16517848 460.04437536 C202.7479633 460.05578763 186.3308374 460.04265732 169.91363686 460.02117389 C155.82010101 460.00330232 141.72669693 460.00640624 127.63316345 460.02484894 C111.27559313 460.04624424 94.9181011 460.05468894 78.56051874 460.04239988 C76.81699786 460.04112566 75.07347696 460.03986817 73.32995605 460.03862762 C72.04311281 460.03770197 72.04311281 460.03770197 70.73027274 460.03675762 C64.67822549 460.03330069 58.62622781 460.03914043 52.57418823 460.04854584 C45.20097707 460.05975234 37.82793628 460.05675432 30.4547447 460.03542286 C26.69118073 460.02489413 22.92790107 460.02082132 19.16433907 460.03401947 C15.08879783 460.04809576 11.01397743 460.03131445 6.9384613 460.01129913 C5.14490369 460.02468346 5.14490369 460.02468346 3.31511259 460.03833818 C2.22627917 460.0279072 1.13744575 460.01747621 0.01561737 460.00672913 C-1.39596814 460.00575501 -1.39596814 460.00575501 -2.83607054 460.00476122 C-6.10840881 459.34485772 -7.30080611 458.1156149 -9.32240295 455.50336456 C-9.70840831 452.73088814 -9.86094528 450.36451058 -9.8184967 447.59711456 C-9.81995193 446.83539948 -9.82140717 446.07368439 -9.82290649 445.28888702 C-9.82124984 443.68179237 -9.80971455 442.07468147 -9.78895569 440.46772003 C-9.75999847 438.01146631 -9.76835042 435.55737187 -9.78138733 433.10102081 C-9.77514946 431.53720827 -9.76675814 429.97340252 -9.7559967 428.40961456 C-9.76040016 427.31103119 -9.76040016 427.31103119 -9.76489258 426.19025421 C-9.70722768 423.06467491 -9.50396807 420.83294147 -7.98280334 418.07172394 C-5.02030703 415.27344776 -2.08775386 415.38333363 1.7830658 415.40570831 C2.76597595 415.40893097 3.74888611 415.41215363 4.76158142 415.41547394 C5.78574158 415.42385284 6.80990173 415.43223175 7.86509705 415.44086456 C9.41873962 415.44763214 9.41873962 415.44763214 11.00376892 415.45453644 C13.56176971 415.46632446 16.11965438 415.48277941 18.67759705 415.50336456 C18.6618866 414.37656281 18.64617615 413.24976105 18.62998962 412.08881378 C18.08351081 369.07827666 18.08351081 369.07827666 21.67759705 352.50336456 C21.91905457 351.35384308 21.91905457 351.35384308 22.16539001 350.18109894 C28.8459005 319.71129702 46.67137163 298.12063173 69.81089783 278.12714386 C72.61478878 275.68813278 75.33293986 273.16042978 78.05259705 270.62836456 C82.01134934 266.95948749 85.98087473 263.30472443 89.99009705 259.69086456 C90.78415955 258.97414581 91.57822205 258.25742706 92.39634705 257.51898956 C93.87467606 256.21279475 95.3738588 254.9296841 96.89634705 253.67523956 C103.251531 248.41087077 107.81343444 242.84878709 108.95103455 234.49555206 C109.30903582 227.03260246 106.64533883 220.97319697 101.80162048 215.31000519 C99.71457332 213.235884 97.56960861 211.26444339 95.36509705 209.31586456 C94.28325134 208.32683136 94.28325134 208.32683136 93.17955017 207.31781769 C89.69653591 204.14718139 86.15595284 201.04481454 82.6033783 197.95258331 C78.7100532 194.5572584 74.93619619 191.04649949 71.17759705 187.50336456 C67.27154236 183.83536665 63.37121764 180.17942078 59.30259705 176.69086456 C33.81328016 154.49758003 21.19329715 123.88118048 18.67759705 90.50336456 C18.55642257 86.74960423 18.56009078 83.00094356 18.5799408 79.24555206 C18.58135574 78.21648743 18.58277069 77.18742279 18.58422852 76.12717438 C18.58977449 72.87754008 18.60231658 69.62797763 18.61509705 66.37836456 C18.62011904 64.15961557 18.62468072 61.94086548 18.62876892 59.72211456 C18.63972616 54.31584052 18.65640947 48.90960768 18.67759705 43.50336456 C17.56517639 43.53478546 17.56517639 43.53478546 16.43028259 43.56684113 C13.07535824 43.64990593 9.72064998 43.7019947 6.36509705 43.75336456 C5.19785095 43.78688019 4.03060486 43.82039581 2.82798767 43.85492706 C1.70972595 43.86781769 0.59146423 43.88070831 -0.5606842 43.89398956 C-1.59233704 43.91493683 -2.62398987 43.93588409 -3.68690491 43.95746613 C-6.32240295 43.50336456 -6.32240295 43.50336456 -8.15541077 41.97309113 C-9.77646354 38.54242797 -9.77090696 35.31695385 -9.7559967 31.59711456 C-9.76123856 30.83539948 -9.76648041 30.07368439 -9.7718811 29.28888702 C-9.77829141 27.68184374 -9.77697709 26.07475347 -9.76844788 24.46772003 C-9.75993048 22.01130354 -9.78872059 19.55720809 -9.82044983 17.10102081 C-9.82206185 15.53721942 -9.82148429 13.97341393 -9.8184967 12.40961456 C-9.82973068 11.67722565 -9.84096466 10.94483673 -9.85253906 10.19025421 C-9.8078488 6.91498309 -9.65769193 4.93636656 -7.62369633 2.30960512 C-4.83366111 0.11976056 -3.51171536 0.00243123 0 0 Z M4.67759705 14.50336456 C4.67759705 19.45336456 4.67759705 24.40336456 4.67759705 29.50336456 C100.37759705 29.50336456 196.07759705 29.50336456 294.67759705 29.50336456 C294.67759705 24.55336456 294.67759705 19.60336456 294.67759705 14.50336456 C198.97759705 14.50336456 103.27759705 14.50336456 4.67759705 14.50336456 Z M33.67759705 43.50336456 C32.14564959 82.02696282 32.14564959 82.02696282 39.42759705 119.81586456 C39.81492004 120.91656281 39.81492004 120.91656281 40.21006775 122.03949738 C47.58701367 142.39182616 60.09719923 157.5499026 76.4236908 171.53461456 C79.35280703 174.09314936 82.20119648 176.73383757 85.05259705 179.37836456 C88.9035428 182.94774882 92.76637366 186.4998257 96.67759705 190.00336456 C97.4665033 190.71492706 98.25540955 191.42648956 99.06822205 192.15961456 C100.46544676 193.41460682 101.86427844 194.66788182 103.27330017 195.90961456 C113.60372782 205.01841874 123.50941963 214.46359864 124.6736908 229.05414581 C124.69437036 242.02022974 119.15664133 251.98416439 110.20298767 261.00336456 C102.54973456 268.52922678 94.66514593 275.79941987 86.56846619 282.84442902 C83.2383711 285.76605537 80.00198238 288.78688965 76.76060486 291.80609894 C74.03396877 294.34098189 71.29589043 296.8530029 68.49009705 299.30023956 C46.0028219 319.02591951 38.26159836 342.47135625 33.67759705 371.50336456 C33.67759705 386.02336456 33.67759705 400.54336456 33.67759705 415.50336456 C110.56759705 415.50336456 187.45759705 415.50336456 266.67759705 415.50336456 C266.67759705 367.86723719 264.39803677 333.08734368 230.0198822 298.65473175 C225.98582621 294.66427214 221.85289819 290.84297392 217.55747986 287.13593292 C214.74757975 284.69569889 212.02611667 282.16408468 209.30259705 279.62836456 C205.38727454 275.99898939 201.46002118 272.38567036 197.49009705 268.81586456 C196.69732361 268.09914581 195.90455017 267.38242706 195.0877533 266.64398956 C193.42969485 265.17135418 191.74836949 263.72463597 190.0486908 262.30023956 C181.75255368 255.22812268 175.41807699 247.20063806 174.4627533 235.97992706 C174.12043672 226.20336565 176.1337018 218.62117693 182.4705658 211.09711456 C183.87884532 209.57084547 183.87884532 209.57084547 183.67759705 207.50336456 C184.2499408 207.25973175 184.82228455 207.01609894 185.41197205 206.76508331 C188.08193243 205.27819158 189.81588711 203.52252548 191.92759705 201.31586456 C195.30837902 197.79318845 198.85508853 194.57761329 202.5408783 191.3839798 C206.13116425 188.22401948 209.58512879 184.92178542 213.05259705 181.62836456 C217.67029553 177.25798925 222.29376833 172.90822399 227.05259705 168.69086456 C255.13676624 143.41511229 264.32893451 116.08196511 266.67759705 78.50336456 C266.67759705 66.95336456 266.67759705 55.40336456 266.67759705 43.50336456 C189.78759705 43.50336456 112.89759705 43.50336456 33.67759705 43.50336456 Z M5.67759705 430.50336456 C4.48903524 437.64478592 4.48903524 437.64478592 4.67759705 445.50336456 C100.37759705 445.50336456 196.07759705 445.50336456 294.67759705 445.50336456 C294.67759705 440.55336456 294.67759705 435.60336456 294.67759705 430.50336456 C199.30759705 430.50336456 103.93759705 430.50336456 5.67759705 430.50336456 Z " fill="#000000" transform="translate(107.32240295410156,25.49663543701172)"/>
<path d="M0 0 C3.45902834 2.87838801 6.74562455 5.89380977 10 9 C10.90298828 9.79083984 10.90298828 9.79083984 11.82421875 10.59765625 C26.72966417 24.1828058 36.21726004 46.41185248 37.27734375 66.3203125 C37.32008988 67.775778 37.35282856 69.23157573 37.375 70.6875 C37.38909912 71.37142822 37.40319824 72.05535645 37.41772461 72.76000977 C37.38908507 75.63955202 37.34096194 77.53808229 35.6015625 79.89453125 C32.03291172 82.35777069 29.35536895 82.13301734 25.03556824 82.14717102 C23.94798823 82.15268605 23.94798823 82.15268605 22.8384369 82.1583125 C20.39643459 82.16937069 17.9544748 82.17319677 15.51245117 82.17700195 C13.76659509 82.18326496 12.02074035 82.18991161 10.27488708 82.19691467 C5.52275988 82.21433869 0.77064275 82.22488009 -3.98150849 82.2331202 C-6.94882715 82.23826702 -9.91614265 82.24434287 -12.88345909 82.25063133 C-22.16273327 82.26968668 -31.44199947 82.28391751 -40.72128946 82.2922433 C-51.44165863 82.30202026 -62.16182157 82.32835031 -72.88211805 82.36874419 C-81.16242457 82.39887636 -89.44267188 82.41370939 -97.72303218 82.41702431 C-102.67131641 82.41937798 -107.61938042 82.42837943 -112.56760597 82.45348549 C-117.22237547 82.47672078 -121.87677902 82.48101782 -126.53159142 82.47072411 C-128.24042857 82.47022754 -129.94928346 82.47658355 -131.6580658 82.49028015 C-133.99069056 82.5079316 -136.32199239 82.50092739 -138.65461731 82.48774719 C-139.96004392 82.49013555 -141.26547052 82.4925239 -142.61045551 82.49498463 C-146.57169172 81.91651427 -148.23560957 80.85151945 -151 78 C-154.71407431 61.34433757 -146.26707405 40.8458751 -138.0859375 26.6875 C-133.71062564 19.85434363 -128.68426574 13.77947957 -123 8 C-122.24074219 7.22785156 -121.48148438 6.45570313 -120.69921875 5.66015625 C-114.17713818 -0.58438898 -106.94709012 -4.87258189 -99 -9 C-98.09507812 -9.4846875 -97.19015625 -9.969375 -96.2578125 -10.46875 C-65.90123976 -25.60090176 -26.56383556 -20.18998875 0 0 Z M-119.50390625 23.84375 C-128.68094663 35.39657241 -137 51.77173426 -137 67 C-84.2 67 -31.4 67 23 67 C19.077397 46.07945066 13.75359268 32.00407812 -1 17 C-2.03060547 15.95005859 -2.03060547 15.95005859 -3.08203125 14.87890625 C-18.14069313 0.54663622 -39.14562656 -6.68541553 -59.7734375 -6.25 C-83.55212367 -4.40758364 -103.78603806 5.99256741 -119.50390625 23.84375 Z " fill="#000000" transform="translate(314,346)"/>
<path d="M0 0 C2.4375 1.5 2.4375 1.5 4 4 C4.61882739 12.81829036 -1.39863287 18.84704241 -6.86499023 25.15063477 C-12.52242751 31.53241819 -18.45321707 37.60813795 -24.4934082 43.6237793 C-26.06774155 45.1927236 -27.63661589 46.76698558 -29.20507812 48.34179688 C-34.08389921 53.22349856 -39.01079416 57.9889635 -44.2590332 62.47729492 C-46.99686839 64.87189288 -49.5263024 67.45789518 -52.0625 70.0625 C-55.13614959 73.21303889 -58.14648562 76.20197725 -61.75 78.75 C-67.40950131 83.38803034 -70.00745269 91.50849951 -73 98 C-73.90733447 99.94188779 -74.82229714 101.88026 -75.75 103.8125 C-76.09546875 104.56144531 -76.4409375 105.31039062 -76.796875 106.08203125 C-78.2781387 108.44339643 -79.58334509 109.60495054 -82 111 C-84.62109375 111.46875 -84.62109375 111.46875 -87.4375 111.5 C-88.36433594 111.5309375 -89.29117188 111.561875 -90.24609375 111.59375 C-94.17457767 110.74675772 -95.54738663 109.1480063 -98 106 C-98.95611698 103.37207613 -99.70857544 100.94195038 -100.375 98.25 C-103.09980064 88.56779458 -107.80849386 82.61051097 -115.5 76.2109375 C-118.98844005 73.12584833 -122.22772478 69.81153612 -125.5 66.5 C-131.08522282 60.82476064 -131.08522282 60.82476064 -137 55.5 C-141.78884143 51.46729143 -146.09290732 46.93066851 -150.49414062 42.48632812 C-153.74515608 39.21570855 -157.00009934 36.00772713 -160.5 33 C-161.0878125 32.49339844 -161.675625 31.98679688 -162.28125 31.46484375 C-163.52345336 30.4061477 -164.77463061 29.3579504 -166.03125 28.31640625 C-169.3114102 25.39420004 -171.44843095 23.33603576 -171.75 18.8125 C-171 15 -171 15 -168.921875 12.953125 C-165.60224742 10.73412261 -162.23432774 9.2780164 -158.5 7.9375 C-157.44703735 7.55235229 -157.44703735 7.55235229 -156.37280273 7.15942383 C-150.02566235 4.89817877 -143.63107416 3.21388516 -137 2 C-135.92492187 1.80277344 -135.92492187 1.80277344 -134.828125 1.6015625 C-114.74845025 -1.27808078 -95.61301246 2.6033398 -76.49755859 8.48657227 C-53.1263413 15.66849586 -34.41650992 14.1718087 -12.62084961 2.99829102 C-8.26812255 0.81760524 -4.99611374 -0.69432396 0 0 Z M-150 20 C-148.51873643 23.43930583 -146.57572554 25.66954338 -143.9296875 28.30078125 C-142.70765625 29.51991211 -142.70765625 29.51991211 -141.4609375 30.76367188 C-140.60757813 31.60478516 -139.75421875 32.44589844 -138.875 33.3125 C-138.04484375 34.14201172 -137.2146875 34.97152344 -136.359375 35.82617188 C-132.02083548 40.13411041 -127.59903299 44.26430991 -122.96533203 48.25073242 C-118.55465217 52.17651146 -114.49099206 56.47274215 -110.35546875 60.68359375 C-106.89904408 64.17793167 -103.41933532 67.55039164 -99.6796875 70.7421875 C-96.8726012 73.15951588 -94.61266082 75.46542355 -92.625 78.625 C-92.16351563 79.33914062 -91.70203125 80.05328125 -91.2265625 80.7890625 C-89.92740252 83.13086042 -88.94050467 85.49491748 -88 88 C-86.40351132 85.60526698 -85.08131712 83.28837798 -83.75 80.75 C-79.99299934 73.98082679 -75.26618704 69.12313756 -69.40234375 64.1484375 C-66.3109151 61.38374521 -63.4132214 58.450298 -60.5 55.5 C-57.08957378 52.0503846 -53.70375113 48.63877215 -50 45.5 C-43.97513085 40.39308302 -38.54463631 34.61531864 -33 29 C-32.34 28.34 -31.68 27.68 -31 27 C-31.72775635 27.02618408 -32.4555127 27.05236816 -33.20532227 27.0793457 C-52.61065592 27.68086079 -69.31283313 25.49331355 -87.94140625 20.3671875 C-109.27411947 14.5239019 -128.59059413 13.06390738 -150 20 Z " fill="#000000" transform="translate(345,148)"/>
<path d="M0 0 C3.3125 1 3.3125 1 5.3125 4 C5.84998871 10.01987353 5.84998871 10.01987353 4.25 12.9375 C1.19273824 14.6140629 -1.2781288 14.36528977 -4.6875 14 C-7.34760658 12.40393605 -7.66307088 11.07023371 -8.6875 8.125 C-8.6875 5 -8.6875 5 -6.6875 2.0625 C-3.6875 0 -3.6875 0 0 0 Z " fill="#000000" transform="translate(258.6875,301)"/>
<path d="M0 0 C1.8125 1.125 1.8125 1.125 3 3 C3.64615385 9.03076923 3.64615385 9.03076923 1.75 11.875 C-0.28974393 13.18626396 -1.5726452 13.78582164 -4 14 C-6.90879043 13.23817394 -8.50386349 12.63144647 -10.375 10.25 C-11.25314395 7.08868178 -10.99594721 5.12063459 -10 2 C-6.56311431 -0.95954045 -4.26887332 -1.5727428 0 0 Z " fill="#000000" transform="translate(261,275)"/>
</svg>
