<svg xmlns="http://www.w3.org/2000/svg" shape-rendering="geometricPrecision" text-rendering="geometricPrecision" image-rendering="optimizeQuality" fill-rule="evenodd" clip-rule="evenodd" viewBox="0 0 512 509.128"><path d="M460.556 1.767l49.678 49.677a6.033 6.033 0 010 8.53l-25.502 25.502a6.029 6.029 0 01-1.607 5.645l-5.852 5.853 10.765 10.765a6.033 6.033 0 010 8.53L378.336 225.97a6.033 6.033 0 01-8.53-8.53l105.437-105.436-7.086-7.087a6.062 6.062 0 01-2.902.036L105.559 464.649a5.93 5.93 0 01-.889.763l-.023.016-.013.009-.111.076-.015.009-.112.071-.016.01c-.25.156-.511.291-.776.406l-93.469 42.534a6.034 6.034 0 01-6.859-1.182l-1.533-1.534.016-.016a6.012 6.012 0 01-1.124-6.935l45.272-90.271.013-.036.014-.036.002-.006.012-.029.016-.034.014-.036.015-.036.016-.034.015-.035.016-.034.015-.035.017-.034.016-.035.017-.034.013-.027.004-.008.017-.034.018-.035.018-.034.01-.021.007-.013.018-.034.019-.033.018-.034.009-.017.009-.017.019-.033.02-.034.019-.033.007-.012.013-.021.02-.033.02-.033.02-.033.021-.033.021-.033.021-.033.022-.035.021-.03.021-.032.022-.032.039-.056.006-.008.022-.031.023-.033.019-.025.004-.006.024-.032.023-.031.024-.031.016-.022.008-.01.025-.03.024-.031.025-.031.014-.017.011-.014.051-.061.025-.03.011-.013.015-.017.079-.09.008-.008.019-.021.027-.03.027-.029.031-.033.053-.054.028-.03.028-.028L407.049 46.745a6.027 6.027 0 011.606-5.646l12.224-12.224a6.03 6.03 0 015.646-1.606l25.502-25.502a6.031 6.031 0 018.529 0zM6.008 501.562l1.533 1.534 93.662-42.621-49.677-49.678-45.518 90.765zm454.344-400.235L240.273 321.406l-49.678-49.678 220.08-220.08 49.677 49.679zM217.786 343.892L105.469 456.209l-.094-.092-49.584-49.585 112.317-112.317 49.678 49.677zM456.292 6.031l49.677 49.678-24.863 24.863-49.678-49.677 24.864-24.864z"/></svg>